<mxfile host="app.diagrams.net" agent="Mozilla/5.0 (Windows NT 10.0; Win64; x64) AppleWebKit/537.36 (KHTML, like Gecko) Chrome/140.0.0.0 Safari/537.36" version="28.1.1">
  <diagram name="Page-1" id="3uaGjuGezvOGK30UtXLk">
    <mxGraphModel dx="2946" dy="1137" grid="1" gridSize="10" guides="1" tooltips="1" connect="1" arrows="1" fold="1" page="1" pageScale="1" pageWidth="850" pageHeight="1100" math="0" shadow="0">
      <root>
        <mxCell id="0" />
        <mxCell id="1" parent="0" />
        <mxCell id="w0JSMd9ZoTwzFxmps7et-1" value="Application Database" style="shape=cylinder3;whiteSpace=wrap;html=1;boundedLbl=1;backgroundOutline=1;size=15;" vertex="1" parent="1">
          <mxGeometry x="9" y="60" width="170" height="210" as="geometry" />
        </mxCell>
        <mxCell id="w0JSMd9ZoTwzFxmps7et-2" value="Audit Policy 1" style="rounded=0;whiteSpace=wrap;html=1;" vertex="1" parent="1">
          <mxGeometry x="109.5" y="200" width="120" height="30" as="geometry" />
        </mxCell>
        <mxCell id="w0JSMd9ZoTwzFxmps7et-3" value="Audit Policy 2" style="rounded=0;whiteSpace=wrap;html=1;" vertex="1" parent="1">
          <mxGeometry x="109.5" y="240" width="120" height="30" as="geometry" />
        </mxCell>
        <mxCell id="w0JSMd9ZoTwzFxmps7et-4" value="Audit Policy 3" style="rounded=0;whiteSpace=wrap;html=1;" vertex="1" parent="1">
          <mxGeometry x="109.5" y="280" width="120" height="30" as="geometry" />
        </mxCell>
        <mxCell id="w0JSMd9ZoTwzFxmps7et-5" value="&lt;div style=&quot;&quot;&gt;&lt;div&gt;Logon Event:-&lt;/div&gt;&lt;ul&gt;&lt;li style=&quot;&quot;&gt;Logon/logoff events&lt;/li&gt;&lt;li style=&quot;&quot;&gt;Failed login events&lt;/li&gt;&lt;li style=&quot;&quot;&gt;Administrative commends&lt;/li&gt;&lt;/ul&gt;SQL Events:&lt;br&gt;&lt;ul&gt;&lt;li style=&quot;&quot;&gt;Risk Indicative/permission errors&lt;/li&gt;&lt;li style=&quot;&quot;&gt;Data Exfiltration: select access sensitive or application schema(s) tables from non application hosts&lt;/li&gt;&lt;li style=&quot;&quot;&gt;Application servers will be whitelisted from SQL auditing&lt;/li&gt;&lt;/ul&gt;&lt;/div&gt;" style="rounded=0;whiteSpace=wrap;html=1;align=left;strokeColor=default;gradientColor=none;" vertex="1" parent="1">
          <mxGeometry x="60" y="480" width="321" height="290" as="geometry" />
        </mxCell>
        <mxCell id="w0JSMd9ZoTwzFxmps7et-7" value="" style="rounded=0;whiteSpace=wrap;html=1;fillColor=none;strokeColor=#0e8088;" vertex="1" parent="1">
          <mxGeometry x="100" y="180" width="190" height="150" as="geometry" />
        </mxCell>
        <mxCell id="w0JSMd9ZoTwzFxmps7et-8" value="Internal AUDIT records are maintained for 7 or 1 day(s)" style="rounded=0;whiteSpace=wrap;html=1;" vertex="1" parent="1">
          <mxGeometry x="30" y="370" width="311" height="90" as="geometry" />
        </mxCell>
        <mxCell id="w0JSMd9ZoTwzFxmps7et-9" value="Central AUDIT DB&lt;div&gt;&lt;br&gt;&lt;/div&gt;" style="shape=cylinder3;whiteSpace=wrap;html=1;boundedLbl=1;backgroundOutline=1;size=15;" vertex="1" parent="1">
          <mxGeometry x="590" y="60" width="170" height="210" as="geometry" />
        </mxCell>
        <mxCell id="w0JSMd9ZoTwzFxmps7et-10" style="edgeStyle=orthogonalEdgeStyle;rounded=0;orthogonalLoop=1;jettySize=auto;html=1;entryX=1;entryY=0.5;entryDx=0;entryDy=0;entryPerimeter=0;shape=flexArrow;" edge="1" parent="1">
          <mxGeometry relative="1" as="geometry">
            <mxPoint x="590" y="164.5" as="sourcePoint" />
            <mxPoint x="179" y="164.5" as="targetPoint" />
          </mxGeometry>
        </mxCell>
        <mxCell id="w0JSMd9ZoTwzFxmps7et-12" value="Read-only link to fetch data generated last n-1 hours" style="text;html=1;align=center;verticalAlign=middle;whiteSpace=wrap;rounded=0;" vertex="1" parent="1">
          <mxGeometry x="350" y="130" width="170" height="30" as="geometry" />
        </mxCell>
        <mxCell id="w0JSMd9ZoTwzFxmps7et-13" value="CENTRAL AUDIT TABLE&lt;div&gt;DB link to application database&lt;/div&gt;" style="rounded=0;whiteSpace=wrap;html=1;" vertex="1" parent="1">
          <mxGeometry x="510" y="185" width="120" height="60" as="geometry" />
        </mxCell>
        <mxCell id="w0JSMd9ZoTwzFxmps7et-18" value="&lt;ul&gt;&lt;li&gt;Fetches jobs from remote/application database periodically&lt;/li&gt;&lt;li&gt;Daily data stored on separate partition&lt;/li&gt;&lt;li&gt;Data retationed for 30 days&lt;/li&gt;&lt;/ul&gt;" style="text;html=1;align=left;verticalAlign=middle;whiteSpace=wrap;rounded=0;strokeColor=default;" vertex="1" parent="1">
          <mxGeometry x="440" y="490" width="290" height="130" as="geometry" />
        </mxCell>
        <mxCell id="w0JSMd9ZoTwzFxmps7et-20" value="&lt;span style=&quot;font-size:11.0pt;font-family:&amp;quot;Aptos&amp;quot;,sans-serif;&lt;br/&gt;mso-fareast-font-family:&amp;quot;Times New Roman&amp;quot;;mso-bidi-font-family:Aptos;&lt;br/&gt;mso-ansi-language:EN-US;mso-fareast-language:EN-US;mso-bidi-language:AR-SA&quot;&gt;SIEM Reads data from Central AUDIT table&lt;/span&gt;" style="rounded=0;whiteSpace=wrap;html=1;" vertex="1" parent="1">
          <mxGeometry x="720" y="370" width="120" height="60" as="geometry" />
        </mxCell>
        <mxCell id="w0JSMd9ZoTwzFxmps7et-22" style="edgeStyle=orthogonalEdgeStyle;rounded=0;orthogonalLoop=1;jettySize=auto;html=1;entryX=0.5;entryY=1;entryDx=0;entryDy=0;entryPerimeter=0;shape=flexArrow;" edge="1" parent="1" source="w0JSMd9ZoTwzFxmps7et-20" target="w0JSMd9ZoTwzFxmps7et-9">
          <mxGeometry relative="1" as="geometry" />
        </mxCell>
        <mxCell id="w0JSMd9ZoTwzFxmps7et-24" value="" style="endArrow=none;html=1;rounded=0;" edge="1" parent="1">
          <mxGeometry width="50" height="50" relative="1" as="geometry">
            <mxPoint x="420" y="910" as="sourcePoint" />
            <mxPoint x="420" y="20" as="targetPoint" />
          </mxGeometry>
        </mxCell>
      </root>
    </mxGraphModel>
  </diagram>
</mxfile>
